<svg id="icon-play-btn" width="15" height="15" viewBox="0 0 15 15" fill="currentColor" xmlns="http://www.w3.org/2000/svg">
<g clip-path="url(#clip0_1545_13305)">
<path d="M2.34729 13.1C2.35088 13.3083 2.41151 13.5117 2.52258 13.688C2.63365 13.8643 2.79092 14.0068 2.97729 14.1C3.1634 14.2051 3.37353 14.2604 3.58729 14.2604C3.80105 14.2604 4.01118 14.2051 4.19729 14.1L12.8473 8.74996C13.0355 8.65928 13.1943 8.51734 13.3054 8.34044C13.4166 8.16354 13.4755 7.95887 13.4755 7.74996C13.4755 7.54105 13.4166 7.33637 13.3054 7.15948C13.1943 6.98258 13.0355 6.84063 12.8473 6.74996L4.19729 1.43996C4.01118 1.3348 3.80105 1.27954 3.58729 1.27954C3.37353 1.27954 3.1634 1.3348 2.97729 1.43996C2.79092 1.53315 2.63365 1.67564 2.52258 1.85194C2.41151 2.02824 2.35088 2.23162 2.34729 2.43996V13.1Z" stroke-linecap="round" stroke-linejoin="round"/>
</g>
<defs>
<clipPath id="clip0_1545_13305">
<rect width="14" height="14" fill="white" transform="translate(0.84729 0.75)"/>
</clipPath>
</defs>
</svg>
