<svg width="24" height="24" viewBox="0 0 24 24" fill="none" xmlns="http://www.w3.org/2000/svg">
<path d="M23.4957 5.69027C23.2174 4.62832 22.4 3.79646 21.3739 3.51327C19.4957 3 12 3 12 3C12 3 4.48696 3 2.62609 3.51327C1.6 3.79646 0.782609 4.62832 0.504348 5.69027C2.48785e-07 7.60177 0 11.6018 0 11.6018C0 11.6018 2.48785e-07 15.6018 0.504348 17.5133C0.782609 18.5752 1.6 19.4071 2.62609 19.6903C4.50435 20.2035 12 20.2036 12 20.2036C12 20.2036 19.513 20.2035 21.3739 19.6903C22.4 19.4071 23.2174 18.5752 23.4957 17.5133C24 15.6018 24 11.6018 24 11.6018C24 11.6018 24 7.60177 23.4957 5.69027ZM9.54783 15.2301V7.97345L15.8261 11.6018L9.54783 15.2301Z" fill="#121212"/>
</svg>
